<svg xmlns="http://www.w3.org/2000/svg" viewBox="0 0 64 64">
  <defs>
    <linearGradient id="g" x1="8" y1="8" x2="56" y2="56" gradientUnits="userSpaceOnUse">
      <stop stop-color="#34d399"/>
      <stop offset="1" stop-color="#059669"/>
    </linearGradient>
  </defs>
  <rect width="64" height="64" rx="16" fill="#07111f"/>
  <g fill="none" stroke="url(#g)" stroke-linecap="round" stroke-linejoin="round" stroke-width="3">
    <path d="m32 9 9 5v10l-9 5-9-5V14l9-5Z"/>
    <path d="m32 9 9 5-9 5-9-5m9 5v10"/>
    <path d="m19 31 9 5v10l-9 5-9-5V36l9-5Z"/>
    <path d="m19 31 9 5-9 5-9-5m9 5v10"/>
    <path d="m45 31 9 5v10l-9 5-9-5V36l9-5Z"/>
    <path d="m45 31 9 5-9 5-9-5m9 5v10"/>
  </g>
</svg>
